<svg t="1705653083575" class="icon" viewBox="0 0 1024 1024" version="1.1" xmlns="http://www.w3.org/2000/svg" p-id="1101" width="200" height="200"><path d="M512 8.42461235S320.40833581 144.35113086 179.30366419 317.81925925c0 0 40.13068642 141.10467161 84.14498766 212.30427656 0 0 164.40506595-178.64628148 248.55134815-198.06435556 0 0 84.14498765 67.31599013 102.26852347 133.33744197 0 0-107.44667653 99.67944691-117.80298272 108.74121481 0 0 18.12353581 27.1853037 40.13068642 49.19245433 0 0 141.10467161-99.67944691 174.76266666-147.57736297 0 0-72.49543775-143.69374815-199.35889383-265.38034567 0 0-177.3517432 146.28282469-213.59881482 181.23535803 0 0 9.06047337-119.09752098 213.59881482-327.51818272 0 0 253.72950124 267.96942222 367.64886914 591.60399012 0 0 67.31599013-80.69374862 103.56306172-143.69374815 0 0-159.22820741-289.97657283-471.21193086-503.57538765z" fill="#888888" p-id="1102"></path><path d="M512 691.94081975s-84.14498765-67.31599013-102.26852347-133.33744197c0 0 107.44667653-99.67944691 117.80298272-108.74121481 0 0-18.12353581-27.1853037-40.13068642-49.19245433 0 0-141.10467161 99.67944691-174.76266666 147.57736297 0 0 72.49543775 143.69374815 199.35889383 265.38034567 0 0 177.3517432-146.28282469 213.59881482-181.23535803 0 0-9.06047337 119.09752098-213.59881482 327.51818272 0 0-253.72950124-267.96942222-367.64886914-591.60399012 0 0-67.31599013 80.69374862-103.56306172 143.69374815 0 0 159.22820741 289.97657283 471.21193086 503.57538765 0 0 191.59166419-135.92651852 332.69633581-309.3946469 0 0-40.13068642-141.10467161-84.14498766-212.30427656 0 0-164.40506595 178.64628148-248.55134815 198.06435556z" fill="#888888" p-id="1103"></path></svg>